<?xml version="1.0" encoding="utf-8"?>
<!-- Generator: Adobe Illustrator 18.1.1, SVG Export Plug-In . SVG Version: 6.00 Build 0)  -->
<svg version="1.1" xmlns="http://www.w3.org/2000/svg" xmlns:xlink="http://www.w3.org/1999/xlink" x="0px" y="0px"
	 viewBox="0 0 1000 500" enable-background="new 0 0 1000 500" xml:space="preserve">
<g id="Background" display="none">
	<rect display="inline" fill="#0A154A" width="1000" height="500"/>
</g>
<g id="Logo">
	<g>
		<g>
			<g>
				<path fill="#FFFFFF" d="M400.4,283.3c-6.3,0-12.2-0.5-17.6-1.6c-5.2-1-9.8-2.2-13.8-3.7c-0.1,0-0.1-0.1-0.1-0.2v-13.7
					c0-0.1,0.1-0.2,0.2-0.2c4.1,2.1,8.7,3.8,13.7,5.1c5.5,1.3,11.4,2,17.7,2c3.7,0,6.8-0.2,9.1-0.6c2.4-0.4,4.2-0.9,5.6-1.5
					c1.4-0.7,2.4-1.4,2.9-2.2c0.5-0.8,0.8-1.6,0.8-2.3c0-1.2-0.5-2.2-1.6-3.1c-1-0.8-2.3-1.5-4-2.1c-1.6-0.6-3.6-1.1-5.7-1.6
					c-2.2-0.5-4.4-1-6.9-1.5c-2.4-0.5-4.9-1-7.5-1.6c-2.5-0.6-5-1.2-7.4-2c-2.4-0.8-4.7-1.6-6.8-2.6c-2.1-1-4-2.2-5.5-3.5
					c-1.6-1.3-2.8-2.9-3.7-4.7c-0.9-1.7-1.3-3.8-1.3-6.1c0-2.7,0.5-5.1,1.4-7.1c1-2,2.3-3.7,3.9-5.1c1.6-1.4,3.6-2.6,5.8-3.4
					c2.2-0.9,4.5-1.6,7-2.1c2.4-0.5,4.9-0.8,7.4-1c2.5-0.2,4.9-0.3,7.2-0.3c2.5,0,5,0.1,7.6,0.4c2.6,0.2,5.2,0.6,7.7,1
					c2.6,0.5,5,1,7.4,1.6c2.2,0.5,4.2,1.1,6.1,1.7c0.1,0,0.1,0.1,0.1,0.2v13.3c0,0.1-0.1,0.2-0.2,0.2c-1.1-0.5-2.4-1-3.9-1.6
					c-2-0.8-4.3-1.5-6.8-2.1c-2.5-0.7-5.3-1.2-8.3-1.7c-3-0.5-6.1-0.7-9.2-0.7c-2.5,0-4.7,0.1-6.4,0.2c-1.8,0.2-3.3,0.4-4.5,0.6
					c-1.3,0.3-2.2,0.6-3,0.9c-0.8,0.4-1.3,0.7-1.7,1.1c-0.4,0.4-0.7,0.8-0.9,1.3c-0.1,0.4-0.2,0.8-0.2,1.1c0,1.1,0.5,2.1,1.6,2.9
					c1,0.7,2.3,1.4,4,1.9c1.6,0.5,3.6,1.1,5.7,1.6c2.2,0.5,4.4,1,6.9,1.5c2.4,0.5,4.9,1.1,7.5,1.7c2.5,0.6,5,1.3,7.4,2.1
					c2.4,0.8,4.7,1.7,6.8,2.8c2.1,1,4,2.3,5.5,3.7c1.6,1.4,2.8,3,3.7,4.8c0.9,1.8,1.3,3.9,1.3,6.2c0,3-0.5,5.6-1.6,7.7
					c-1.1,2.1-2.5,4-4.2,5.4c-1.8,1.5-3.9,2.7-6.2,3.6c-2.4,0.9-4.9,1.6-7.5,2.1c-2.6,0.5-5.3,0.8-7.9,1
					C405.4,283.2,402.8,283.3,400.4,283.3z"/>
				<path fill="#FFFFFF" d="M518.4,281.5l-16.9-43.6c-0.1-0.1-0.3-0.1-0.3,0l-16.9,43.6c0,0.1-0.1,0.1-0.2,0.1h-18.3
					c-0.1,0-0.1,0-0.2-0.1l-25.3-62.9c0-0.1,0-0.2,0.2-0.2h16.5c0.1,0,0.1,0,0.2,0.1l17.6,44.1c0.1,0.1,0.3,0.1,0.3,0l16.9-44.1
					c0-0.1,0.1-0.1,0.2-0.1h18.4c0.1,0,0.1,0,0.2,0.1l16.6,45c0.1,0.2,0.3,0.2,0.3,0l17.9-45.1c0-0.1,0.1-0.1,0.2-0.1h16.5
					c0.1,0,0.2,0.1,0.2,0.2L537,281.5c0,0.1-0.1,0.1-0.2,0.1h-18.3C518.5,281.6,518.4,281.5,518.4,281.5z"/>
				<path fill="#FFFFFF" d="M572.8,281.4v-62.9c0-0.1,0.1-0.2,0.2-0.2h16c0.1,0,0.2,0.1,0.2,0.2v62.9c0,0.1-0.1,0.2-0.2,0.2h-16
					C572.8,281.6,572.8,281.5,572.8,281.4z"/>
				<path fill="#FFFFFF" d="M794.9,283.3c-2.5,0-5-0.1-7.6-0.4c-2.6-0.2-5.2-0.6-7.7-1c-2.6-0.5-5-1-7.4-1.6
					c-2.2-0.5-4.2-1.1-6.1-1.7c-0.1,0-0.1-0.1-0.1-0.2v-13.3c0-0.1,0.1-0.2,0.2-0.2c1.1,0.5,2.4,1,3.9,1.6c2,0.8,4.3,1.5,6.8,2.1
					c2.5,0.7,5.3,1.2,8.3,1.7c3,0.5,6.1,0.7,9.2,0.7c2.5,0,4.7-0.1,6.4-0.2c1.8-0.2,3.3-0.4,4.5-0.6c1.3-0.3,2.2-0.6,3-0.9
					c0.8-0.4,1.3-0.7,1.7-1.1c0.4-0.4,0.7-0.8,0.9-1.3c0.1-0.4,0.2-0.8,0.2-1.1c0-1.1-0.5-2.1-1.6-2.9c-1-0.7-2.3-1.4-4-1.9
					c-1.6-0.5-3.6-1.1-5.7-1.6c-2.2-0.5-4.4-1-6.9-1.5c-2.4-0.5-4.9-1.1-7.5-1.7c-2.5-0.6-5-1.3-7.4-2.1c-2.4-0.8-4.7-1.7-6.8-2.8
					c-2.1-1-4-2.3-5.5-3.7c-1.6-1.4-2.8-3-3.7-4.8c-0.9-1.8-1.3-3.9-1.3-6.2c0-3,0.5-5.6,1.6-7.7c1.1-2.1,2.5-4,4.2-5.4
					c1.8-1.5,3.9-2.7,6.2-3.6c2.4-0.9,4.9-1.6,7.5-2.1c2.6-0.5,5.3-0.8,7.9-1c2.7-0.2,5.3-0.2,7.7-0.2c6.3,0,12.2,0.5,17.6,1.6
					c5.2,1,9.8,2.2,13.8,3.7c0.1,0,0.1,0.1,0.1,0.2v13.7c0,0.1-0.1,0.2-0.2,0.2c-4.1-2.1-8.7-3.8-13.7-5.1c-5.5-1.3-11.4-2-17.7-2
					c-3.7,0-6.8,0.2-9.1,0.6c-2.4,0.4-4.2,0.9-5.6,1.5c-1.4,0.7-2.4,1.4-2.9,2.2c-0.5,0.8-0.8,1.6-0.8,2.3c0,1.2,0.5,2.2,1.6,3.1
					c1,0.8,2.3,1.5,4,2.1c1.6,0.6,3.6,1.1,5.7,1.6c2.2,0.5,4.4,1,6.9,1.5c2.4,0.5,4.9,1,7.5,1.6c2.5,0.6,5,1.2,7.4,2
					c2.4,0.8,4.7,1.6,6.8,2.6c2.1,1,4,2.2,5.5,3.5c1.6,1.3,2.8,2.9,3.7,4.7c0.9,1.7,1.3,3.8,1.3,6.1c0,2.7-0.5,5.1-1.4,7.1
					c-1,2-2.3,3.7-3.9,5.1c-1.6,1.4-3.6,2.6-5.8,3.4c-2.2,0.9-4.5,1.6-6.9,2.1c-2.4,0.5-4.9,0.8-7.4,1
					C799.5,283.2,797.1,283.3,794.9,283.3z"/>
				<path fill="#FFFFFF" d="M738.9,281.6l-17.6-44.1c-0.1-0.1-0.3-0.1-0.3,0l-16.9,44.1c0,0.1-0.1,0.1-0.2,0.1h-18.4
					c-0.1,0-0.1,0-0.2-0.1l-16.6-45c-0.1-0.2-0.3-0.2-0.3,0l-17.9,45.1c0,0.1-0.1,0.1-0.2,0.1h-16.5c-0.1,0-0.2-0.1-0.2-0.2
					l25.3-62.9c0-0.1,0.1-0.1,0.2-0.1h18.3c0.1,0,0.1,0,0.2,0.1l17,43.6c0.1,0.1,0.3,0.1,0.3,0l16.9-43.6c0-0.1,0.1-0.1,0.2-0.1
					h18.3c0.1,0,0.1,0,0.2,0.1l25.3,62.9c0,0.1,0,0.2-0.2,0.2h-16.5C739,281.7,738.9,281.6,738.9,281.6z"/>
				<path fill="#FFFFFF" d="M607,281.5v-62.9c0-0.1,0.1-0.2,0.2-0.2h16c0.1,0,0.2,0.1,0.2,0.2v62.9c0,0.1-0.1,0.2-0.2,0.2h-16
					C607,281.7,607,281.6,607,281.5z"/>
			</g>
		</g>
		<g>
			<path fill="#FFFFFF" d="M231.5,167.1c-1.3,0-2.7,0.2-4.2,0.7c-2.2,0.7-4.3,1.5-6.4,2.3c0,0,0,0,0,0c-5.7,3.8-10.4,8.4-13.9,13.7
				c5.1-3.8,11.2-7.5,16.4-9c2-0.8,3.8-1.4,5.6-2c1-0.3,1.9-0.5,2.6-0.5c1.4,0,2.1,0.4,2.6,1.6c2.4,5.6-1.3,21.9-21.8,44
				c-1.9,2-3.7,4.1-5.4,6.2l-3.9,4.9c0.7,2,1.6,3.9,2.5,5.9c3.1-4.7,6.7-9.2,10.6-13.5C245.1,190.3,244.3,167.1,231.5,167.1z"/>
			<path fill="#FFFFFF" d="M221.1,317.8c-30-15.1-41.1-45.4-41.6-65.9c0-0.5,0.7-0.6,0.8-0.1c2.8,10.9,13.6,45,40.1,58.3
				C231,315.3,230.9,322.7,221.1,317.8z"/>
			<path fill="#FFFFFF" d="M226.1,262c-9.4-8.8-16.1-18-20.5-27c-12.7-26.1-5.6-51.2,15.2-64.9c-31.5,12.8-53.7,43.7-53.7,79.8
				c0,27.3,12.7,51.6,32.5,67.4c0,0,0,0,0,0c7.1,5.7,15.2,10.2,23.8,13.4c0,0,0,0,0,0c3.9,0.9,7.5,1.4,10.7,1.4
				C262.8,332.2,264.6,298.2,226.1,262z M249,318.9c-2.6,6.6-9.5,8-14.8,8c-2.8,0-5.9-0.4-9.3-1.2c-7.9-3-15.3-7.2-21.9-12.4
				c0,0-0.1-0.1-0.1-0.1l0,0c-19.4-15.4-30.5-38.5-30.5-63.3c0-16.4,4.9-32.2,14.1-45.7c3.1-4.5,6.5-8.6,10.3-12.3
				c-4.8,13.7-3.6,29.6,4,45.3c4.9,10,12.2,19.6,21.7,28.5C246.4,288.4,253,308.7,249,318.9z"/>
			<path fill="#FFFFFF" d="M275.1,332.9c1.3,0,2.7-0.2,4.2-0.7c2.2-0.7,4.3-1.5,6.4-2.3c0,0,0,0,0,0c5.7-3.8,10.4-8.4,13.9-13.7
				c-5.1,3.8-11.2,7.5-16.4,9c-2,0.8-3.8,1.4-5.6,2c-1,0.3-1.9,0.5-2.6,0.5c-1.4,0-2.1-0.4-2.6-1.6c-2.4-5.6,1.3-21.9,21.8-44
				c1.9-2,3.7-4.1,5.4-6.2l3.9-4.9c-0.7-2-1.6-3.9-2.5-5.9c-3.1,4.7-6.7,9.2-10.6,13.5C261.4,309.7,262.2,332.9,275.1,332.9z"/>
			<path fill="#FFFFFF" d="M285.4,182.2c30,15.1,41.1,45.4,41.6,65.9c0,0.5-0.7,0.6-0.8,0.1c-2.8-10.9-13.6-45-40.1-58.3
				C275.5,184.7,275.6,177.3,285.4,182.2z"/>
			<path fill="#FFFFFF" d="M280.4,238c9.4,8.8,16.1,18,20.5,27c12.7,26.1,5.6,51.2-15.2,64.9c31.5-12.8,53.7-43.7,53.7-79.8
				c0-27.3-12.7-51.6-32.5-67.4c0,0,0,0,0,0c-7.1-5.7-15.2-10.2-23.8-13.4c0,0,0,0,0,0c-3.9-0.9-7.5-1.4-10.7-1.4
				C243.8,167.8,241.9,201.8,280.4,238z M257.6,181.1c2.6-6.6,9.5-8,14.8-8c2.8,0,5.9,0.4,9.3,1.2c7.9,3,15.3,7.2,21.9,12.4
				c0,0,0.1,0.1,0.1,0.1l0,0c19.4,15.4,30.5,38.5,30.5,63.3c0,16.4-4.9,32.2-14.1,45.7c-3.1,4.5-6.5,8.6-10.3,12.3
				c4.8-13.7,3.6-29.6-4-45.3c-4.9-10-12.2-19.6-21.7-28.5C260.1,211.6,253.5,191.3,257.6,181.1z"/>
		</g>
	</g>
	<g>
		<path fill="#FFFFFF" d="M596.2,293l-6.5,20.8H582l-4.3-13h-0.1l-4.3,13h-7.7l-6.5-20.8h6.4l4.5,14.2h0.1l4.5-14.2h5.9l4.5,14.2
			h0.1l4.5-14.2H596.2z"/>
		<path fill="#FFFFFF" d="M603.2,293h6v20.8h-6V293z"/>
		<path fill="#FFFFFF" d="M631.6,293c8.6,0,13.2,4,13.2,10.4s-4.6,10.4-13.2,10.4h-13V293H631.6z M631.3,297.1h-6.7v12.6h6.7
			c4.5,0,7.4-2.1,7.4-6.3C638.7,299.2,635.8,297.1,631.3,297.1z"/>
		<path fill="#FFFFFF" d="M658.9,292.9c0,1.8-1.4,2.9-3.4,2.9c-2,0-3.4-1-3.4-2.9c0-1.8,1.4-2.9,3.4-2.9S658.9,291.1,658.9,292.9z
			 M658.5,298v15.8h-5.9V298H658.5z"/>
		<path fill="#FFFFFF" d="M686.7,308.7c0,3-2.2,5.4-10,5.4c-5,0-8.8-0.8-10.4-1.3v-3.8c1.5,0.5,5,1.5,10.4,1.5
			c2.7,0,4.3-0.4,4.3-1.3c0-1.1-1.6-1.3-4.9-1.5c-5.4-0.3-9.7-1.4-9.7-4.9c0-3.2,3.7-5.1,10.1-5.1c4,0,7.1,0.6,8.5,0.9v3.6
			c-2.2-0.6-4.9-1-8-1c-2.1,0-4.9,0.2-4.9,1.2c0,1.2,2.1,1.2,5,1.4C683,304.1,686.7,305.4,686.7,308.7z"/>
		<path fill="#FFFFFF" d="M700.1,311.5h-0.1v8.3H694V298h5.3l0.4,2.5h0.1c1.6-1.8,4.1-2.8,7.6-2.8c6.1,0,9.6,3.2,9.6,8.2
			c0,4.9-3.5,8.3-9.6,8.3C704.2,314.2,701.7,313.2,700.1,311.5z M700,305.9c0,2.8,2.4,4.5,5.5,4.5c3.3,0,5.6-1.6,5.6-4.5
			s-2.3-4.5-5.6-4.5C702.3,301.5,700,303.1,700,305.9z"/>
		<path fill="#FFFFFF" d="M744.5,304.1v9.8h-5.1l-0.4-2.1h-0.1c-1.3,1.5-3.6,2.4-7.5,2.4c-4.9,0-8-1.9-8-5.2c0-3.5,3.4-5.1,9.1-5.1
			c2.6,0,4.7,0.4,6.2,0.9v-0.2c0-1.8-1.7-2.9-5.8-2.9c-3.1,0-6.6,0.8-7.9,1.5v-4.2c1.3-0.6,6-1.2,8.7-1.2
			C740.6,297.7,744.5,299.8,744.5,304.1z M738.5,307.2c-1-0.3-2.6-0.7-4.3-0.7c-2.6,0-4.9,0.5-4.9,2.2c0,1.6,1.8,2.2,4,2.2
			c3.8,0,5.3-1.5,5.3-3.4V307.2z"/>
		<path fill="#FFFFFF" d="M769.8,310.1v3.8c0,0-1.9,0.2-3.4,0.2c-6.7,0-10.6-1.3-10.6-7.7v-4.9h-5V298h5v-5h5.9v5h7.5v3.5h-7.5v4.7
			c0,2.9,1.3,4.1,5.2,4.1C767.9,310.3,769.8,310.1,769.8,310.1z"/>
		<path fill="#FFFFFF" d="M795.6,313.1c-1.7,0.6-5.5,1-8.1,1c-8.3,0-12.2-3.2-12.2-8.2c0-5,3.9-8.2,12.2-8.2c2.3,0,6.1,0.4,7.7,1
			v4.4c-1.5-0.9-4.6-1.5-7-1.5c-4.3,0-6.9,1.5-6.9,4.3c0,2.9,2.7,4.4,6.9,4.4c3.1,0,6.3-0.8,7.4-1.6V313.1z"/>
		<path fill="#FFFFFF" d="M826.1,305.9v8h-5.9v-8c0-2.9-2.2-4.4-5.6-4.4c-3.3,0-5.5,1.5-5.5,4.3v8h-5.9v-21.7h5.9v8.3h0.1
			c1.7-1.7,4.3-2.7,7.6-2.7C822.8,297.7,826.1,300.9,826.1,305.9z"/>
	</g>
</g>
</svg>
